<svg width="314" height="42" viewBox="0 0 314 42" fill="none" xmlns="http://www.w3.org/2000/svg">
<path d="M5.17 36.685H26.345C27.225 36.685 27.72 37.18 27.72 38.06V39.545C27.72 40.425 27.225 40.92 26.345 40.92H1.375C0.495004 40.92 4.04567e-06 40.425 4.04567e-06 39.545V2.035C4.04567e-06 1.155 0.495004 0.659995 1.375 0.659995H3.795C4.675 0.659995 5.17 1.155 5.17 2.035V36.685ZM36.3039 39.875C35.9739 40.535 35.4239 40.92 34.6539 40.92H31.7939C30.7489 40.92 30.3639 40.205 30.8039 39.27L49.2839 1.485C49.6139 0.824996 49.8889 0.659995 50.3289 0.659995C50.7689 0.659995 51.0439 0.824996 51.3739 1.485L69.8539 39.27C70.2939 40.205 69.9089 40.92 68.8639 40.92H65.9489C65.1789 40.92 64.6289 40.535 64.2989 39.875L61.2189 33.275H39.3839L36.3039 39.875ZM50.3839 10.285L41.5839 28.93H59.0739L50.3839 10.285ZM95.9587 40.92C95.0787 40.92 94.5837 40.425 94.5837 39.545V2.035C94.5837 1.155 95.0787 0.659995 95.9587 0.659995H109.874C121.919 0.659995 129.784 8.58 129.784 20.79C129.784 33 122.029 40.92 109.874 40.92H95.9587ZM99.7537 36.575H109.214C115.264 36.575 124.559 34.155 124.559 20.845C124.559 7.48 115.044 5.005 109.214 5.005H99.7537V36.575ZM141.699 0.659995C142.579 0.659995 143.074 1.155 143.074 2.035V39.545C143.074 40.425 142.579 40.92 141.699 40.92H139.279C138.399 40.92 137.904 40.425 137.904 39.545V2.035C137.904 1.155 138.399 0.659995 139.279 0.659995H141.699ZM155.757 39.875C155.427 40.535 154.877 40.92 154.107 40.92H151.247C150.202 40.92 149.817 40.205 150.257 39.27L168.737 1.485C169.067 0.824996 169.342 0.659995 169.782 0.659995C170.222 0.659995 170.497 0.824996 170.827 1.485L189.307 39.27C189.747 40.205 189.362 40.92 188.317 40.92H185.402C184.632 40.92 184.082 40.535 183.752 39.875L180.672 33.275H158.837L155.757 39.875ZM169.837 10.285L161.037 28.93H178.527L169.837 10.285ZM200.622 39.545C200.622 40.425 200.127 40.92 199.247 40.92H196.882C196.002 40.92 195.507 40.425 195.507 39.545V1.32C195.507 0.934995 195.727 0.659995 196.057 0.659995C196.387 0.659995 196.607 0.769997 197.047 1.32L215.417 24.09L233.842 1.32C234.282 0.769997 234.502 0.659995 234.832 0.659995C235.162 0.659995 235.382 0.934995 235.382 1.32V39.545C235.382 40.425 234.887 40.92 234.007 40.92H231.697C230.817 40.92 230.322 40.425 230.322 39.545V13.86L216.407 31.295C215.802 32.01 215.032 32.065 214.427 31.295L200.622 13.86V39.545ZM246.636 39.875C246.306 40.535 245.756 40.92 244.986 40.92H242.126C241.081 40.92 240.696 40.205 241.136 39.27L259.616 1.485C259.946 0.824996 260.221 0.659995 260.661 0.659995C261.101 0.659995 261.376 0.824996 261.706 1.485L280.186 39.27C280.626 40.205 280.241 40.92 279.196 40.92H276.281C275.511 40.92 274.961 40.535 274.631 39.875L271.551 33.275H249.716L246.636 39.875ZM260.716 10.285L251.916 28.93H269.406L260.716 10.285ZM299.041 41.745C292.221 41.745 287.711 39.93 283.971 37.125C283.256 36.63 283.201 35.915 283.751 35.2L284.906 33.77C285.456 33.055 286.116 33 286.831 33.55C289.966 35.75 293.871 37.18 298.876 37.18C305.146 37.18 308.556 34.045 308.556 30.03C308.556 25.135 303.496 23.815 297.611 22.77C292.551 21.89 282.596 20.625 282.596 11.55C282.596 2.64 290.846 -2.80142e-06 297.226 -2.80142e-06C302.836 -2.80142e-06 306.741 1.54 309.931 3.575C310.701 4.07 310.811 4.73 310.316 5.5L309.216 7.15C308.721 7.92 308.061 7.975 307.291 7.48C304.046 5.5 301.131 4.565 296.896 4.565C293.211 4.565 287.766 6.325 287.766 11.44C287.766 16.335 295.906 17.71 300.801 18.7C305.696 19.69 313.671 21.23 313.671 30.03C313.671 38.225 306.906 41.745 299.041 41.745Z" fill="#C9A15C"/>
</svg>
